<?xml version="1.0" encoding="UTF-8"?>
<svg xmlns="http://www.w3.org/2000/svg" xmlns:xlink="http://www.w3.org/1999/xlink" width="273pt" height="637pt" viewBox="0 0 273 637" version="1.1">
<g id="surface1">
<path style=" stroke:none;fill-rule:nonzero;fill:rgb(0%,0%,0%);fill-opacity:1;" d="M 147.976562 464.1875 C 187.351562 474.152344 181.800781 453.394531 183.976562 424.992188 C 159.523438 447.097656 136.949219 419.371094 147.976562 464.1875 Z M 147.976562 464.1875 "/>
<path style=" stroke:none;fill-rule:nonzero;fill:rgb(0%,0%,0%);fill-opacity:1;" d="M 269.324219 346.753906 C 255.074219 310.03125 208.125 302.011719 232.425781 352.824219 C 236.25 358.519531 237.074219 375.90625 242.476562 367.585938 C 241.800781 370.957031 248.851562 384.375 249 373.957031 C 250.351562 380.328125 253.648438 378.601562 253.648438 378.601562 C 256.273438 378.601562 252.898438 367.4375 254.175781 370.882812 C 262.875 384 259.199219 355.519531 257.550781 353.722656 C 257.175781 352.148438 255.226562 338.957031 256.5 341.433594 C 259.125 346.304688 269.476562 356.871094 269.324219 346.753906 Z M 269.324219 346.753906 "/>
<path style=" stroke:none;fill-rule:nonzero;fill:rgb(0%,0%,0%);fill-opacity:1;" d="M 241.050781 288.671875 C 233.699219 294.070312 225.074219 298.117188 216 299.914062 C 222.976562 328.617188 252.226562 315.578125 241.050781 288.671875 Z M 241.050781 288.671875 "/>
<path style=" stroke:none;fill-rule:nonzero;fill:rgb(0%,0%,0%);fill-opacity:1;" d="M 240.601562 284.777344 C 232.050781 235.015625 240.824219 233.292969 198.523438 248.65625 C 199.574219 268.8125 212.851562 315.503906 240.601562 284.777344 Z M 240.601562 284.777344 "/>
<path style=" stroke:none;fill-rule:nonzero;fill:rgb(0%,0%,0%);fill-opacity:1;" d="M 222.300781 219.800781 C 220.800781 209.386719 203.25 220.253906 194.175781 224.671875 C 196.800781 233.816406 198.226562 236.140625 198.375 245.65625 C 207.601562 243.632812 238.574219 237.863281 222.300781 219.800781 Z M 222.300781 219.800781 "/>
<path style=" stroke:none;fill-rule:nonzero;fill:rgb(0%,0%,0%);fill-opacity:1;" d="M 157.5 123.277344 C 202.425781 131.820312 181.050781 197.019531 185.398438 232.394531 C 174.449219 232.019531 155.550781 226.246094 138.675781 227.296875 C 143.925781 212.53125 123.601562 115.335938 157.5 123.277344 Z M 157.5 123.277344 "/>
<path style=" stroke:none;fill-rule:nonzero;fill:rgb(0%,0%,0%);fill-opacity:1;" d="M 170.324219 103.269531 C 201.75 113.011719 229.800781 130.472656 188.476562 157.375 C 188.550781 132.195312 174.226562 126.875 155.699219 118.257812 C 143.625 97.199219 145.425781 86.105469 170.324219 103.269531 Z M 170.324219 103.269531 "/>
<path style=" stroke:none;fill-rule:nonzero;fill:rgb(0%,0%,0%);fill-opacity:1;" d="M 151.351562 83.335938 C 162.675781 67.820312 158.023438 63.476562 167.699219 52.234375 C 168.976562 50.359375 171.824219 38.820312 165.824219 42.941406 C 171.300781 22.257812 150.148438 3.371094 138.601562 6.519531 C 143.699219 8.769531 125.773438 121.554688 151.351562 83.335938 Z M 151.351562 83.335938 "/>
<path style=" stroke:none;fill-rule:nonzero;fill:rgb(0%,0%,0%);fill-opacity:1;" d="M 104.699219 582.890625 C 87.523438 577.121094 94.425781 600.726562 81.898438 608.222656 C 76.125 613.242188 70.800781 622.3125 80.699219 625.085938 C 103.273438 649.890625 131.925781 579.820312 104.699219 582.890625 Z M 104.699219 582.890625 "/>
<path style=" stroke:none;fill-rule:nonzero;fill:rgb(0%,0%,0%);fill-opacity:1;" d="M 112.050781 435.859375 C 103.574219 435.410156 94.050781 427.839844 88.800781 424.992188 C 93.75 441.027344 80.851562 468.605469 108.601562 466.132812 C 128.101562 467.707031 125.625 459.914062 127.949219 439.378906 C 129.074219 433.386719 116.550781 438.257812 112.050781 435.859375 Z M 112.050781 435.859375 "/>
<path style=" stroke:none;fill-rule:nonzero;fill:rgb(0%,0%,0%);fill-opacity:1;" d="M 124.726562 329.441406 C 116.925781 315.128906 94.726562 316.625 83.25 311.230469 C 84.675781 337.234375 67.425781 427.988281 113.175781 433.683594 C 142.050781 445.226562 127.726562 381.75 133.199219 374.40625 C 133.800781 357.246094 139.574219 343.457031 124.726562 329.441406 Z M 124.726562 329.441406 "/>
<path style=" stroke:none;fill-rule:nonzero;fill:rgb(0%,0%,0%);fill-opacity:1;" d="M 136.425781 309.808594 C 128.773438 309.28125 105.523438 314.003906 113.550781 316.402344 C 122.851562 314.078125 129.300781 338.285156 136.425781 335.960938 C 138.449219 335.960938 142.050781 336.335938 146.101562 327.492188 C 160.050781 308.90625 170.398438 315.128906 136.425781 309.808594 Z M 136.425781 309.808594 "/>
<path style=" stroke:none;fill-rule:nonzero;fill:rgb(0%,0%,0%);fill-opacity:1;" d="M 134.925781 306.808594 C 141 267.691406 113.625 289.199219 87.976562 277.132812 C 71.324219 324.421875 104.324219 311.679688 134.925781 306.808594 Z M 134.925781 306.808594 "/>
<path style=" stroke:none;fill-rule:nonzero;fill:rgb(0%,0%,0%);fill-opacity:1;" d="M 31.726562 288.671875 C 20.625 315.652344 49.875 328.617188 56.773438 299.914062 C 47.699219 298.117188 39 293.996094 31.726562 288.671875 Z M 31.726562 288.671875 "/>
<path style=" stroke:none;fill-rule:nonzero;fill:rgb(0%,0%,0%);fill-opacity:1;" d="M 134.175781 229.171875 C 88.125 230.519531 84.300781 229.917969 87.601562 274.585938 C 143.175781 290.246094 134.550781 277.507812 134.175781 229.171875 Z M 134.175781 229.171875 "/>
<path style=" stroke:none;fill-rule:nonzero;fill:rgb(0%,0%,0%);fill-opacity:1;" d="M 185.25 274.585938 C 188.550781 229.917969 184.726562 230.519531 138.675781 229.171875 C 138.226562 277.507812 129.601562 290.246094 185.25 274.585938 Z M 185.25 274.585938 "/>
<path style=" stroke:none;fill-rule:nonzero;fill:rgb(0%,0%,0%);fill-opacity:1;" d="M 50.476562 219.800781 C 34.199219 237.789062 65.175781 243.632812 74.398438 245.65625 C 74.550781 236.140625 75.976562 233.816406 78.601562 224.671875 C 69.523438 220.253906 51.976562 209.460938 50.476562 219.800781 Z M 50.476562 219.800781 "/>
<path style=" stroke:none;fill-rule:nonzero;fill:rgb(0%,0%,0%);fill-opacity:1;" d="M 80.773438 213.65625 C 83.699219 199.269531 81.675781 186.902344 83.101562 163.148438 C 44.925781 111.210938 64.425781 190.648438 51.601562 212.53125 C 58.800781 211.035156 81.601562 229.996094 80.773438 213.65625 Z M 80.773438 213.65625 "/>
<path style=" stroke:none;fill-rule:nonzero;fill:rgb(0%,0%,0%);fill-opacity:1;" d="M 115.351562 123.277344 C 70.425781 131.820312 91.800781 197.019531 87.449219 232.394531 C 98.398438 232.019531 117.300781 226.246094 134.175781 227.296875 C 128.925781 212.53125 149.25 115.335938 115.351562 123.277344 Z M 115.351562 123.277344 "/>
<path style=" stroke:none;fill-rule:nonzero;fill:rgb(0%,0%,0%);fill-opacity:1;" d="M 102.449219 103.269531 C 71.023438 113.011719 42.976562 130.472656 84.300781 157.375 C 84.226562 132.195312 98.550781 126.875 117.074219 118.257812 C 129.148438 97.199219 127.351562 86.105469 102.449219 103.269531 Z M 102.449219 103.269531 "/>
<path style=" stroke:none;fill-rule:nonzero;fill:rgb(0%,0%,0%);fill-opacity:1;" d="M 136.425781 124.703125 C 164.175781 126.5 144 109.863281 145.726562 91.351562 C 140.101562 95.027344 132.75 95.027344 127.125 91.351562 C 128.851562 109.789062 108.601562 126.425781 136.425781 124.703125 Z M 136.425781 124.703125 "/>
<path style=" stroke:none;fill-rule:nonzero;fill:rgb(0%,0%,0%);fill-opacity:1;" d="M 109.574219 58.753906 C 115.574219 66.472656 112.351562 75.390625 123.824219 86.183594 C 145.648438 115.859375 129.375 7.269531 134.175781 6.59375 C 124.050781 4.046875 100.199219 20.609375 107.550781 42.714844 C 98.773438 40.09375 104.925781 55.679688 109.574219 58.753906 Z M 109.574219 58.753906 "/>
<path style=" stroke:none;fill-rule:nonzero;fill:rgb(0%,0%,0%);fill-opacity:1;" d="M 14.324219 341.433594 C 17.023438 342.03125 3.976562 384.296875 16.648438 370.882812 C 17.925781 367.4375 14.550781 378.601562 17.175781 378.601562 C 17.175781 378.601562 20.550781 380.328125 21.824219 373.957031 C 21.898438 384.449219 29.023438 371.035156 28.351562 367.585938 C 33.75 375.90625 34.5 358.519531 38.398438 352.824219 C 62.699219 302.011719 15.75 310.03125 1.5 346.753906 C 1.351562 356.871094 11.773438 346.304688 14.324219 341.433594 Z M 14.324219 341.433594 "/>
<path style=" stroke:none;fill-rule:nonzero;fill:rgb(0%,0%,0%);fill-opacity:1;" d="M 74.25 248.65625 C 32.023438 233.21875 40.800781 235.015625 32.175781 284.777344 C 59.925781 315.503906 73.125 268.8125 74.25 248.65625 Z M 74.25 248.65625 "/>
<path style=" stroke:none;fill-rule:nonzero;fill:rgb(0%,0%,0%);fill-opacity:1;" d="M 221.25 211.785156 C 208.425781 189.902344 227.925781 110.464844 189.75 162.398438 C 191.175781 186.152344 189.148438 198.519531 192.074219 212.90625 C 191.398438 229.246094 214.125 210.285156 221.25 211.785156 Z M 221.25 211.785156 "/>
<path style=" stroke:none;fill-rule:nonzero;fill:rgb(0%,0%,0%);fill-opacity:1;" d="M 185.476562 277.28125 C 159.824219 289.347656 132.449219 267.765625 138.523438 306.960938 C 169.125 311.832031 202.050781 324.570312 185.476562 277.28125 Z M 185.476562 277.28125 "/>
<path style=" stroke:none;fill-rule:nonzero;fill:rgb(0%,0%,0%);fill-opacity:1;" d="M 139.273438 374.332031 C 144.824219 381.75 130.425781 445.226562 159.300781 433.609375 C 205.125 427.914062 187.875 337.160156 189.226562 311.15625 C 177.75 316.550781 155.550781 315.050781 147.75 329.367188 C 132.976562 343.457031 138.75 357.246094 139.273438 374.332031 Z M 139.273438 374.332031 "/>
<path style=" stroke:none;fill-rule:nonzero;fill:rgb(0%,0%,0%);fill-opacity:1;" d="M 125.476562 467.257812 C 106.050781 474.601562 83.550781 453.917969 89.476562 483.671875 C 90.074219 517.242188 98.476562 546.847656 99.148438 578.472656 C 132.449219 598.253906 121.875 491.839844 125.476562 467.257812 Z M 125.476562 467.257812 "/>
<path style=" stroke:none;fill-rule:nonzero;fill:rgb(0%,0%,0%);fill-opacity:1;" d="M 173.175781 578.472656 C 173.851562 546.847656 182.25 517.242188 182.851562 483.671875 C 188.699219 453.917969 166.199219 474.601562 146.851562 467.257812 C 150.449219 491.839844 139.800781 598.253906 173.175781 578.472656 Z M 173.175781 578.472656 "/>
<path style=" stroke:none;fill-rule:nonzero;fill:rgb(0%,0%,0%);fill-opacity:1;" d="M 188.476562 625.007812 C 198.375 622.238281 193.050781 613.167969 187.273438 608.148438 C 174.75 600.652344 181.726562 577.046875 164.476562 582.816406 C 137.324219 579.820312 165.898438 649.890625 188.476562 625.007812 Z M 188.476562 625.007812 "/>
</g>
</svg>
