<?xml version="1.0" encoding="UTF-8"?>
<svg enable-background="new 0 0 364 850" version="1.1" viewBox="0 0 364 850" xml:space="preserve" xmlns="http://www.w3.org/2000/svg">
<path d="m197.3 619.4c52.5 13.3 45.1-14.4 48-52.3-32.6 29.5-62.7-7.5-48 52.3z"/>
<path d="m359.1 462.7c-19-49-81.6-59.7-49.2 8.1 5.1 7.6 6.2 30.8 13.4 19.7-0.9 4.5 8.5 22.4 8.7 8.5 1.8 8.5 6.2 6.2 6.2 6.2 3.5 0-1-14.9 0.7-10.3 11.6 17.5 6.7-20.5 4.5-22.9-0.5-2.1-3.1-19.7-1.4-16.4 3.5 6.5 17.3 20.6 17.1 7.1z"/>
<path d="m321.4 385.2c-9.8 7.2-21.3 12.6-33.4 15 9.3 38.3 48.3 20.9 33.4-15z"/>
<path d="m320.8 380c-11.4-66.4 0.3-68.7-56.1-48.2 1.4 26.9 19.1 89.2 56.1 48.2z"/>
<path d="m296.4 293.3c-2-13.9-25.4 0.6-37.5 6.5 3.5 12.2 5.4 15.3 5.6 28 12.3-2.7 53.6-10.4 31.9-34.5z"/>
<path d="m210 164.5c59.9 11.4 31.4 98.4 37.2 145.6-14.6-0.5-39.8-8.2-62.3-6.8 7-19.7-20.1-149.4 25.1-138.8z"/>
<path d="m227.1 137.8c41.9 13 79.3 36.3 24.2 72.2 0.1-33.6-19-40.7-43.7-52.2-16.1-28.1-13.7-42.9 19.5-20z"/>
<path d="m201.8 111.2c15.1-20.7 8.9-26.5 21.8-41.5 1.7-2.5 5.5-17.9-2.5-12.4 7.3-27.6-20.9-52.8-36.3-48.6 6.8 3-17.1 153.5 17 102.5z"/>
<path d="m139.6 777.8c-22.9-7.7-13.7 23.8-30.4 33.8-7.7 6.7-14.8 18.8-1.6 22.5 30.1 33.1 68.3-60.4 32-56.3z"/>
<path d="m149.4 581.6c-11.3-0.6-24-10.7-31-14.5 6.6 21.4-10.6 58.2 26.4 54.9 26 2.1 22.7-8.3 25.8-35.7 1.5-8-15.2-1.5-21.2-4.7z"/>
<path d="m166.3 439.6c-10.4-19.1-40-17.1-55.3-24.3 1.9 34.7-21.1 155.8 39.9 163.4 38.5 15.4 19.4-69.3 26.7-79.1 0.8-22.9 8.5-41.3-11.3-60z"/>
<path d="m181.9 413.4c-10.2-0.7-41.2 5.6-30.5 8.8 12.4-3.1 21 29.2 30.5 26.1 2.7 0 7.5 0.5 12.9-11.3 18.6-24.8 32.4-16.5-12.9-23.6z"/>
<path d="m179.9 409.4c8.1-52.2-28.4-23.5-62.6-39.6-22.2 63.1 21.8 46.1 62.6 39.6z"/>
<path d="m42.3 385.2c-14.8 36 24.2 53.3 33.4 15-12.1-2.4-23.7-7.9-33.4-15z"/>
<path d="m178.9 305.8c-61.4 1.8-66.5 1-62.1 60.6 74.1 20.9 62.6 3.9 62.1-60.6z"/>
<path d="m247 366.4c4.4-59.6-0.7-58.8-62.1-60.6-0.6 64.5-12.1 81.5 62.1 60.6z"/>
<path d="m67.3 293.3c-21.7 24 19.6 31.8 31.9 34.5 0.2-12.7 2.1-15.8 5.6-28-12.1-5.9-35.5-20.3-37.5-6.5z"/>
<path d="m107.7 285.1c3.9-19.2 1.2-35.7 3.1-67.4-50.9-69.3-24.9 36.7-42 65.9 9.6-2 40 23.3 38.9 1.5z"/>
<path d="m153.8 164.5c-59.9 11.4-31.4 98.4-37.2 145.6 14.6-0.5 39.8-8.2 62.3-6.8-7-19.7 20.1-149.4-25.1-138.8z"/>
<path d="m136.6 137.8c-41.9 13-79.3 36.3-24.2 72.2-0.1-33.6 19-40.7 43.7-52.2 16.1-28.1 13.7-42.9-19.5-20z"/>
<path d="m181.9 166.4c37 2.4 10.1-19.8 12.4-44.5-7.5 4.9-17.3 4.9-24.8 0 2.3 24.6-24.7 46.8 12.4 44.5z"/>
<path d="m146.1 78.4c8 10.3 3.7 22.2 19 36.6 29.1 39.6 7.4-105.3 13.8-106.2-13.5-3.4-45.3 18.7-35.5 48.2-11.7-3.5-3.5 17.3 2.7 21.4z"/>
<path d="m19.1 455.6c3.6 0.8-13.8 57.2 3.1 39.3 1.7-4.6-2.8 10.3 0.7 10.3 0 0 4.5 2.3 6.2-6.2 0.1 14 9.6-3.9 8.7-8.5 7.2 11.1 8.2-12.1 13.4-19.7 32.4-67.8-30.2-57.1-49.2-8.1-0.2 13.5 13.7-0.6 17.1-7.1z"/>
<path d="m99 331.8c-56.3-20.6-44.6-18.2-56.1 48.2 37 41 54.6-21.3 56.1-48.2z"/>
<path d="m295 282.6c-17.1-29.2 8.9-135.2-42-65.9 1.9 31.7-0.8 48.2 3.1 67.4-0.9 21.8 29.4-3.5 38.9-1.5z"/>
<path d="m247.3 370c-34.2 16.1-70.7-12.7-62.6 39.6 40.8 6.5 84.7 23.5 62.6-39.6z"/>
<path d="m185.7 499.5c7.4 9.9-11.8 94.6 26.7 79.1 61.1-7.6 38.1-128.7 39.9-163.4-15.3 7.2-44.9 5.2-55.3 24.3-19.7 18.8-12 37.2-11.3 60z"/>
<path d="m167.3 623.5c-25.9 9.8-55.9-17.8-48 21.9 0.8 44.8 12 84.3 12.9 126.5 44.4 26.4 30.3-115.6 35.1-148.4z"/>
<path d="m230.9 771.9c0.9-42.2 12.1-81.7 12.9-126.5 7.8-39.7-22.2-12.1-48-21.9 4.8 32.8-9.4 174.8 35.1 148.4z"/>
<path d="m251.3 834c13.2-3.7 6.1-15.8-1.6-22.5-16.7-10-7.4-41.5-30.4-33.8-36.2-4 1.9 89.5 32 56.3z"/>
</svg>