<?xml version="1.0" encoding="utf-8" standalone="no"?>
<!-- Generator: Adobe Illustrator 24.1.0, SVG Export Plug-In . SVG Version: 6.00 Build 0)  -->
<svg version="1.1" id="front" xmlns="http://www.w3.org/2000/svg" xmlns:xlink="http://www.w3.org/1999/xlink" viewBox="0 0 273 637">
    <style type="text/css">
        path {
            fill: blue;
        }
    </style>
<g>
	<path id="F_14_L" d="M197.3,619.4c52.5,13.3,45.1-14.4,48-52.3C212.7,596.6,182.6,559.6,197.3,619.4z"/>
	<path id="F_12_L" d="M359.1,462.7c-19-49-81.6-59.7-49.2,8.1c5.1,7.6,6.2,30.8,13.4,19.7c-0.9,4.5,8.5,22.4,8.7,8.5
		c1.8,8.5,6.2,6.2,6.2,6.2c3.5,0-1-14.9,0.7-10.3c11.6,17.5,6.7-20.5,4.5-22.9c-0.5-2.1-3.1-19.7-1.4-16.4
		C345.5,462.1,359.3,476.2,359.1,462.7z"/>
	<path id="F_09_L" d="M321.4,385.2c-9.8,7.2-21.3,12.6-33.4,15C297.3,438.5,336.3,421.1,321.4,385.2z"/>
	<path id="F_07_L" d="M320.8,380c-11.4-66.4,0.3-68.7-56.1-48.2C266.1,358.7,283.8,421,320.8,380z"/>
	<path id="F_06_L" d="M296.4,293.3c-2-13.9-25.4,0.6-37.5,6.5c3.5,12.2,5.4,15.3,5.6,28C276.8,325.1,318.1,317.4,296.4,293.3z"/>
	<path id="F_04_L" d="M210,164.5c59.9,11.4,31.4,98.4,37.2,145.6c-14.6-0.5-39.8-8.2-62.3-6.8C191.9,283.6,164.8,153.9,210,164.5z"
		/>
	<path id="F_03_L" d="M227.1,137.8c41.9,13,79.3,36.3,24.2,72.2c0.1-33.6-19-40.7-43.7-52.2C191.5,129.7,193.9,114.9,227.1,137.8z"
		/>
	<path id="F_01_L" d="M201.8,111.2c15.1-20.7,8.9-26.5,21.8-41.5c1.7-2.5,5.5-17.9-2.5-12.4c7.3-27.6-20.9-52.8-36.3-48.6
		C191.6,11.7,167.7,162.2,201.8,111.2z"/>
	<path id="F_16_R" d="M139.6,777.8c-22.9-7.7-13.7,23.8-30.4,33.8c-7.7,6.7-14.8,18.8-1.6,22.5C137.7,867.2,175.9,773.7,139.6,777.8
		z"/>
	<path id="F_14_R" d="M149.4,581.6c-11.3-0.6-24-10.7-31-14.5c6.6,21.4-10.6,58.2,26.4,54.9c26,2.1,22.7-8.3,25.8-35.7
		C172.1,578.3,155.4,584.8,149.4,581.6z"/>
	<path id="F_13_R" d="M166.3,439.6c-10.4-19.1-40-17.1-55.3-24.3c1.9,34.7-21.1,155.8,39.9,163.4c38.5,15.4,19.4-69.3,26.7-79.1
		C178.4,476.7,186.1,458.3,166.3,439.6z"/>
	<path id="F_11" d="M181.9,413.4c-10.2-0.7-41.2,5.6-30.5,8.8c12.4-3.1,21,29.2,30.5,26.1c2.7,0,7.5,0.5,12.9-11.3
		C213.4,412.2,227.2,420.5,181.9,413.4z"/>
	<path id="F_10_R" d="M179.9,409.4c8.1-52.2-28.4-23.5-62.6-39.6C95.1,432.9,139.1,415.9,179.9,409.4z"/>
	<path id="F_09_R" d="M42.3,385.2c-14.8,36,24.2,53.3,33.4,15C63.6,397.8,52,392.3,42.3,385.2z"/>
	<path id="F_08_R" d="M178.9,305.8c-61.4,1.8-66.5,1-62.1,60.6C190.9,387.3,179.4,370.3,178.9,305.8z"/>
	<path id="F_08_R_1_" d="M247,366.4c4.4-59.6-0.7-58.8-62.1-60.6C184.3,370.3,172.8,387.3,247,366.4z"/>
	<path id="F_06_R" d="M67.3,293.3c-21.7,24,19.6,31.8,31.9,34.5c0.2-12.7,2.1-15.8,5.6-28C92.7,293.9,69.3,279.5,67.3,293.3z"/>
	<path id="F_05_R" d="M107.7,285.1c3.9-19.2,1.2-35.7,3.1-67.4c-50.9-69.3-24.9,36.7-42,65.9C78.4,281.6,108.8,306.9,107.7,285.1z"
		/>
	<path id="F_04_R" d="M153.8,164.5c-59.9,11.4-31.4,98.4-37.2,145.6c14.6-0.5,39.8-8.2,62.3-6.8C171.9,283.6,199,153.9,153.8,164.5z
		"/>
	<path id="F_03_R" d="M136.6,137.8c-41.9,13-79.3,36.3-24.2,72.2c-0.1-33.6,19-40.7,43.7-52.2C172.2,129.7,169.8,114.9,136.6,137.8z
		"/>
	<path id="F_02" d="M181.9,166.4c37,2.4,10.1-19.8,12.4-44.5c-7.5,4.9-17.3,4.9-24.8,0C171.8,146.5,144.8,168.7,181.9,166.4z"/>
	<path id="F_01_R" d="M146.1,78.4c8,10.3,3.7,22.2,19,36.6c29.1,39.6,7.4-105.3,13.8-106.2c-13.5-3.4-45.3,18.7-35.5,48.2
		C131.7,53.5,139.9,74.3,146.1,78.4z"/>
	<path id="F_12_L_1_" d="M19.1,455.6c3.6,0.8-13.8,57.2,3.1,39.3c1.7-4.6-2.8,10.3,0.7,10.3c0,0,4.5,2.3,6.2-6.2
		c0.1,14,9.6-3.9,8.7-8.5c7.2,11.1,8.2-12.1,13.4-19.7C83.6,403,21,413.7,2,462.7C1.8,476.2,15.7,462.1,19.1,455.6z"/>
	<path id="F_07_L_1_" d="M99,331.8c-56.3-20.6-44.6-18.2-56.1,48.2C79.9,421,97.5,358.7,99,331.8z"/>
	<path id="F_05_R_1_" d="M295,282.6c-17.1-29.2,8.9-135.2-42-65.9c1.9,31.7-0.8,48.2,3.1,67.4C255.2,305.9,285.5,280.6,295,282.6z"
		/>
	<path id="F_10_R_1_" d="M247.3,370c-34.2,16.1-70.7-12.7-62.6,39.6C225.5,416.1,269.4,433.1,247.3,370z"/>
	<path id="F_13_R_1_" d="M185.7,499.5c7.4,9.9-11.8,94.6,26.7,79.1c61.1-7.6,38.1-128.7,39.9-163.4c-15.3,7.2-44.9,5.2-55.3,24.3
		C177.3,458.3,185,476.7,185.7,499.5z"/>
	<path id="F_15_L_1_" d="M167.3,623.5c-25.9,9.8-55.9-17.8-48,21.9c0.8,44.8,12,84.3,12.9,126.5
		C176.6,798.3,162.5,656.3,167.3,623.5z"/>
	<path id="F_15_L_2_" d="M230.9,771.9c0.9-42.2,12.1-81.7,12.9-126.5c7.8-39.7-22.2-12.1-48-21.9
		C200.6,656.3,186.4,798.3,230.9,771.9z"/>
	<path id="F_16_R_1_" d="M251.3,834c13.2-3.7,6.1-15.8-1.6-22.5c-16.7-10-7.4-41.5-30.4-33.8C183.1,773.7,221.2,867.2,251.3,834z"/>
</g>
</svg>