<?xml version="1.0" encoding="utf-8"?>
<!-- Generator: Adobe Illustrator 24.1.0, SVG Export Plug-In . SVG Version: 6.00 Build 0)  -->
<svg version="1.1" id="back" xmlns="http://www.w3.org/2000/svg" xmlns:xlink="http://www.w3.org/1999/xlink" viewBox="-200 -100 273 637">    <style type="text/css">
        path {
            fill: blue;
        }
    </style>
<g>
	<path id="B_16_R" d="M249.7,792.4c-3.8-4.6-10.5-7.5-16.5-8.7c-5.4-28.8-8.8,0-27.9-6c3.4,23.6-11.8,42.3,5,52
		C223,822.6,249.7,807.2,249.7,792.4z"/>
	<path id="B_15_R" d="M204.7,767.1c-0.6,14.3,17.3,2.2,26.8-7.2c5.2-26.3,16.1-100.6,12-129.5c-2.7-7.5-36.8,12.3-48.1,2.4
		C190.8,684.1,208.4,713.3,204.7,767.1z"/>
	<path id="B_14_R" d="M195.7,626.8c12.6,9.6,42.3,3.1,47.1-8.8c-1.5-13.2-1.4-20,0.4-31.8C197.6,597.2,185,565.4,195.7,626.8z"/>
	<path id="B_13_R" d="M254.7,451.6c-12.8,29.9-54,17.9-71.2,16.3c8.6,27.3-22.3,147.6,60.5,112.3C251.9,534.7,255.3,492,254.7,451.6
		z"/>
	<path id="B_10_R" d="M254.1,422.2c-5.9-66.1-5.1-56.1-70.1-47.5c0,0,0,87.4,0,87.4C213.9,478,264.9,463.5,254.1,422.2z"/>
	<path id="B_14_L" d="M120.7,585.5c1.9,12,2.1,19.1,0.5,32.5c4.8,11.9,34.5,18.4,47.1,8.8C179,565.6,166.6,598.1,120.7,585.5z"/>
	<path id="B_13_L" d="M179.3,466.5c-21.2,10-59.7,7.4-70.3-14c0.4,42.9,2.8,81.8,11,127.8C203.3,615,173.8,492.3,179.3,466.5z"/>
	<path id="B_12_L" d="M32.6,424.6c-7.2,5.7-48.5,62.3-16.4,37.2c0.6,8.6-10.9,39.4,1.8,34.8c1.9,0.5-1,6.6,2.3,6.4
		c17.4-2.6,20.6-8.4,24.8-29.3C55.8,455.4,64,419.1,32.6,424.6z"/>
	<path id="B_10_L" d="M180,374.7c-83.8-13.1-60-12.8-70.7,65.3c5.5,32.5,46.8,32.2,68.9,22.7C182.3,465.1,179,375.1,180,374.7z"/>
	<path id="B_09_L" d="M35.7,417.8c11.2,6.6,25,15.4,27.8-3.4C49.5,414.8,37.6,397,35.7,417.8z"/>
	<path id="B_08_L" d="M180,280.6c-81.9-3-48.5,19.6-60.5,77C205.4,396.3,175.1,335.1,180,280.6z"/>
	<path id="B_07_L" d="M55.9,316.8c-8.8,18.4-11.3,54.9-15.7,84c34.9,31.2,40.7-34.7,53.1-58C102.3,322.7,67.4,329.9,55.9,316.8z"/>
	<path id="B_06_L" d="M66.5,276.5c-11.6,38-7,45.2,28.2,49.1C102.8,295.9,106.3,271.2,66.5,276.5z"/>
	<path id="B_05_L" d="M112.8,238.7c-48.2-57.3-37.8-13.6-45.5,32.2C112.4,278.4,104.3,283,112.8,238.7z"/>
	<path id="B_04_L" d="M180,136.1c-31.5-4.8-16.7,34.1-41.4,38.1c-44.2,14.7-11.5,72.7-17.5,109.1c11.3-2.8,30.6-6.5,58.9-6.8V136.1z
		"/>
	<path id="B_03_L" d="M114,232.2c-13.7-69.2,19.6-43,38.3-80.3c9.4-19.4-77.6,5.4-75.7,46.8C78.9,212.3,107,215.7,114,232.2z"/>
	<path id="B_02" d="M182,131.1c33.5,11.7,26.5-12.6,0-18.6C155.5,118.5,148.5,142.8,182,131.1z"/>
	<path id="B_01_L" d="M180,24.4c-14.1-3.5-44.9,19.2-35.7,48.6c-13,0.3,0.7,19.7,5.6,24.6c5.8,28.4,7.5,19.8,30.1,10.9
		C180,108.6,180,24.4,180,24.4z"/>
	<path id="B_08_L_1_" d="M245.4,357.2c-11.9-57.3,21.5-79.9-60.5-77C189.8,334.7,159.5,395.9,245.4,357.2z"/>
	<path id="B_01_L_1_" d="M184,108.6c22.6,8.9,24.2,17.5,30.1-10.9c4.9-4.9,18.6-24.3,5.6-24.6c9.3-29.4-21.6-52.1-35.7-48.6
		C184,24.4,184,108.6,184,108.6z"/>
	<path id="B_04_L_1_" d="M184.2,276.6c28.3,0.3,47.7,4,58.9,6.8c-6-36.5,26.7-94.4-17.5-109.1c-24.7-4-10-42.9-41.4-38.1V276.6z"/>
	<path id="B_06_L_1_" d="M270.6,325.7c35.2-3.9,39.8-11.1,28.2-49.1C259,271.2,262.5,295.9,270.6,325.7z"/>
	<path id="B_03_L_1_" d="M286.9,198.8c1.9-41.4-85.2-66.2-75.7-46.8c18.7,37.2,52,11,38.3,80.3C256.5,215.7,284.5,212.3,286.9,198.8
		z"/>
	<path id="B_05_L_1_" d="M297.6,269.9c-7.6-45.8,2.8-89.5-45.5-32.2C260.6,282,252.6,277.4,297.6,269.9z"/>
	<path id="B_07_L_1_" d="M269.8,342.8c12.3,23.3,18.2,89.1,53.1,58c-4.4-29.1-6.9-65.6-15.7-84C295.6,329.9,260.8,322.7,269.8,342.8
		z"/>
	<path id="B_12_L_1_" d="M315.3,473.7c4.2,20.9,7.5,26.7,24.8,29.3c3.4,0.2,0.5-5.9,2.3-6.4c12.8,4.6,1.2-26.2,1.8-34.8
		c32.1,25.1-9.2-31.5-16.4-37.2C296.5,419.1,304.6,455.4,315.3,473.7z"/>
	<path id="B_09_L_1_" d="M298.6,414.4c2.8,18.8,16.6,10,27.8,3.4C324.5,397,312.7,414.8,298.6,414.4z"/>
	<path id="B_16_R_1_" d="M154.1,829.6c16.8-9.7,1.6-28.4,5-52c-19.1,5.9-22.5-22.8-27.9,6c-6,1.2-12.7,4.1-16.5,8.7
		C114.8,807.2,141.5,822.6,154.1,829.6z"/>
	<path id="B_15_R_1_" d="M169.4,633.8c-11.4,10-45.5-9.9-48.1-2.4c-4.2,28.8,6.8,103.2,12,129.5c9.5,9.4,27.4,21.5,26.8,7.2
		C156.4,714.3,174,685.1,169.4,633.8z"/>
</g>
</svg>