<?xml version="1.0" encoding="utf-8"?>
<!-- Generator: Adobe Illustrator 24.1.0, SVG Export Plug-In . SVG Version: 6.00 Build 0)  -->
<svg version="1.1" id="Layer_1" xmlns="http://www.w3.org/2000/svg" xmlns:xlink="http://www.w3.org/1999/xlink" x="0px" y="0px"
	 viewBox="0 0 512 512" style="enable-background:new 0 0 512 512;" xml:space="preserve">
<style type="text/css">
	.st0{fill:#01194B;stroke:#FFFFFF;stroke-width:3;}
	.st1{fill:#FFFFFF;}
</style>
<circle class="st0" cx="256" cy="256" r="254.5"/>
<path class="st1" d="M402.8,106.8c-32.9-32.9-86.1-32.9-119,0L108.7,282c-32.9,32.9-32.9,86.1,0,119c32.9,32.9,86.1,32.9,119,0
	l175.1-175.1C435.7,193,435.7,139.7,402.8,106.8z M368.8,140.9c4.8,4.8,4.8,12.5,0,17.2c-4.8,4.8-12.5,4.8-17.2,0
	c-4.8-4.8-4.8-12.5,0-17.2C356.3,136.1,364,136.1,368.8,140.9z M335.7,173.9c4.8,4.8,4.8,12.5,0,17.2c-4.8,4.8-12.5,4.8-17.2,0
	c-4.8-4.8-4.8-12.5,0-17.2C323.2,169.2,331,169.2,335.7,173.9z M313.2,242.3c3.2,3.2,3.2,8.5,0,11.7l-57.3,57.3
	c-3.2,3.2-8.5,3.2-11.7,0l-45.9-45.9c-3.2-3.2-3.2-8.5,0-11.7l57.3-57.3c3.2-3.2,8.5-3.2,11.7,0L313.2,242.3z M338.4,110.4
	c4.8,4.8,4.8,12.5,0,17.2s-12.5,4.8-17.2,0c-4.8-4.8-4.8-12.5,0-17.2C325.9,105.6,333.6,105.6,338.4,110.4z M305.3,143.5
	c4.8,4.8,4.8,12.5,0,17.2c-4.8,4.8-12.5,4.8-17.2,0c-4.8-4.8-4.8-12.5,0-17.2C292.8,138.7,300.5,138.7,305.3,143.5z M112.3,336.5
	c-4.8-4.8-4.8-12.5,0-17.2c4.8-4.8,12.5-4.8,17.2,0c4.8,4.8,4.8,12.5,0,17.2C124.7,341.3,117,341.3,112.3,336.5z M145.3,303.4
	c-4.8-4.8-4.8-12.5,0-17.2c4.8-4.8,12.5-4.8,17.2,0c4.8,4.8,4.8,12.5,0,17.2C157.8,308.2,150.1,308.2,145.3,303.4z M142.7,367
	c-4.8-4.8-4.8-12.5,0-17.2c4.8-4.8,12.5-4.8,17.2,0c4.8,4.8,4.8,12.5,0,17.2C155.2,371.7,147.5,371.7,142.7,367z M175.8,333.9
	c-4.8-4.8-4.8-12.5,0-17.2c4.8-4.8,12.5-4.8,17.2,0c4.8,4.8,4.8,12.5,0,17.2C188.3,338.6,180.6,338.6,175.8,333.9z M173.7,398
	c-4.8-4.8-4.8-12.5,0-17.2c4.8-4.8,12.5-4.8,17.2,0c4.8,4.8,4.8,12.5,0,17.2C186.2,402.7,178.5,402.7,173.7,398z M206.8,364.9
	c-4.8-4.8-4.8-12.5,0-17.2c4.8-4.8,12.5-4.8,17.2,0c4.8,4.8,4.8,12.5,0,17.2C219.3,369.6,211.6,369.7,206.8,364.9z M349.5,222.2
	c-4.8-4.8-4.8-12.5,0-17.2c4.8-4.8,12.5-4.8,17.2,0c4.8,4.8,4.8,12.5,0,17.2C362,227,354.3,227,349.5,222.2z M382.6,189.1
	c-4.8-4.8-4.8-12.5,0-17.2c4.8-4.8,12.5-4.8,17.2,0c4.8,4.8,4.8,12.5,0,17.2C395.1,193.9,387.4,193.9,382.6,189.1z"/>
</svg>
